<svg xmlns="http://www.w3.org/2000/svg" xmlns:xlink="http://www.w3.org/1999/xlink" width="554.867" height="260.598" viewBox="0 0 554.867 260.598">
  <defs>
    <style>
      .cls-1, .cls-2, .cls-4 {
        fill: #fff;
      }

      .cls-2 {
        opacity: 0;
      }

      .cls-3, .cls-5 {
        fill: #ff6b0d;
      }

      .cls-4 {
        font-size: 72px;
        font-family: SFProDisplay-Bold, SF Pro Display;
        font-weight: 700;
      }

      .cls-5 {
        opacity: 0.2;
      }

      .cls-6 {
        fill: #ff6f12;
        font-size: 60px;
        font-family: SFProDisplay-Medium, SF Pro Display;
        font-weight: 500;
      }

      .cls-7 {
        filter: url(#Rectangle_50);
      }
    </style>
    <filter id="Rectangle_50" x="125.922" y="0" width="428.945" height="260.598" filterUnits="userSpaceOnUse">
      <feOffset input="SourceAlpha"/>
      <feGaussianBlur stdDeviation="20" result="blur"/>
      <feFlood flood-opacity="0.161"/>
      <feComposite operator="in" in2="blur"/>
      <feComposite in="SourceGraphic"/>
    </filter>
  </defs>
  <g id="Group_16" data-name="Group 16" transform="translate(2355.867 -4039.247)">
    <rect id="Rectangle_41" data-name="Rectangle 41" class="cls-1" width="494.867" height="140.598" rx="37" transform="translate(-2355.867 4099.247)"/>
    <g class="cls-7" transform="matrix(1, 0, 0, 1, -2355.87, 4039.25)">
      <rect id="Rectangle_50-2" data-name="Rectangle 50" class="cls-2" width="308.945" height="140.598" rx="37" transform="translate(185.92 60)"/>
    </g>
    <path id="Intersection_22" data-name="Intersection 22" class="cls-3" d="M36.881,140.6A37,37,0,0,1,0,106.584V34.014A37,37,0,0,1,36.881,0h89.832l49.6,49.6a29,29,0,0,1,0,41.012L126.329,140.6Z" transform="translate(-2355.867 4099.246)"/>
    <text id="L" class="cls-4" transform="translate(-2272.968 4195.071)"><tspan x="-19.547" y="0">L</tspan></text>
    <path id="Intersection_31" data-name="Intersection 31" class="cls-5" d="M114.742,140.6,12.752,58.008A33,33,0,0,1,7.874,11.595L17.263,0H125.587a37,37,0,0,1,37,37v66.6a37,37,0,0,1-37,37Z" transform="translate(-2023.587 4099.247)"/>
    <text id="Loss" class="cls-6" transform="translate(-2021.072 4189.546)"><tspan x="-60.952" y="0">Loss</tspan></text>
  </g>
</svg>
