<svg xmlns="http://www.w3.org/2000/svg" width="494.868" height="140.598" viewBox="0 0 494.868 140.598">
  <defs>
    <style>
      .cls-1, .cls-3, .cls-4 {
        fill: #fff;
      }

      .cls-2, .cls-5, .cls-6 {
        fill: #ff6b0d;
      }

      .cls-3 {
        font-size: 72px;
        font-family: SFProDisplay-Bold, SF Pro Display;
        font-weight: 700;
      }

      .cls-4 {
        opacity: 0;
      }

      .cls-5 {
        opacity: 0.2;
      }

      .cls-6 {
        font-size: 60px;
        font-family: SFProDisplay-Medium, SF Pro Display;
        font-weight: 500;
      }
    </style>
  </defs>
  <g id="Group_18" data-name="Group 18" transform="translate(5545 -4609)">
    <path id="Path_98" data-name="Path 98" class="cls-1" d="M37,0H457.867a37,37,0,0,1,37,37v66.6a37,37,0,0,1-37,37H37a37,37,0,0,1-37-37V37A37,37,0,0,1,37,0Z" transform="translate(-5545 4609)"/>
    <path id="Intersection_6" data-name="Intersection 6" class="cls-2" d="M36.881,140.6A37,37,0,0,1,0,106.584V34.014A37,37,0,0,1,36.881,0h89.832l49.6,49.6a29,29,0,0,1,0,41.012L126.329,140.6Z" transform="translate(-5545 4609)"/>
    <text id="P" class="cls-3" transform="translate(-5464.676 4703.9)"><tspan x="-22.236" y="0">P</tspan></text>
    <rect id="Rectangle_33" data-name="Rectangle 33" class="cls-4" width="308.945" height="140.598" rx="37" transform="translate(-5359.078 4609)"/>
    <path id="Intersection_23" data-name="Intersection 23" class="cls-5" d="M114.742,140.6,12.752,58.008A33,33,0,0,1,7.874,11.595L17.263,0H125.587a37,37,0,0,1,37,37v66.6a37,37,0,0,1-37,37Z" transform="translate(-5212.719 4609)"/>
    <text id="Power" class="cls-6" transform="translate(-5286.929 4699.3)"><tspan x="0" y="0">Power</tspan></text>
  </g>
</svg>
